<svg width="155" height="56" viewBox="0 0 155 56" fill="none" xmlns="http://www.w3.org/2000/svg">
<g clip-path="url(#clip0_393_115)">
<path d="M80.7437 34.666V23.0005C80.7437 21.3714 82.0644 20.0508 83.694 20.0508H98.1965C99.8253 20.0508 101.146 21.3714 101.146 23.0005V34.666C101.146 36.2951 99.8253 37.6156 98.1965 37.6156H83.694C82.0644 37.6156 80.7437 36.2951 80.7437 34.666Z" stroke="white" stroke-width="3.68707"/>
<path d="M28.1729 34.666V23.0005C28.1729 21.3714 29.4935 20.0508 31.1225 20.0508H45.625C47.254 20.0508 48.5747 21.3714 48.5747 23.0005V34.666C48.5747 36.2951 47.254 37.6156 45.625 37.6156H31.1225C29.4935 37.6156 28.1729 36.2951 28.1729 34.666Z" stroke="white" stroke-width="3.68707"/>
<path d="M22.2455 37.6156H4.79341C3.16435 37.6156 1.84375 36.2951 1.84375 34.666V23.0005C1.84375 21.3714 3.16436 20.0508 4.79341 20.0508H19.2958C20.9249 20.0508 22.2455 21.3714 22.2455 23.0005V37.6156ZM22.2455 37.6156L22.2456 46.9792C22.2456 48.6083 20.9251 49.9289 19.296 49.9289H7.38484C4.32465 49.9289 1.84387 47.4481 1.84387 44.3879" stroke="white" stroke-width="3.68707"/>
<path d="M153.13 37.6156H136.384C134.755 37.6156 133.435 36.2951 133.435 34.666V28.8332M133.435 28.8332V23.0005C133.435 21.3714 134.755 20.0508 136.384 20.0508H150.18C151.81 20.0508 153.13 21.3714 153.13 23.0005V24.442V25.8835C153.13 27.5126 151.81 28.8332 150.18 28.8332H133.435Z" stroke="white" stroke-width="3.68707"/>
<path d="M127.506 20.0255V34.6668C127.506 36.2959 126.186 37.6164 124.557 37.6164H110.023C108.394 37.6164 107.074 36.2959 107.074 34.6668V22.9751C107.074 21.3461 108.394 20.0255 110.023 20.0255H127.506ZM127.506 20.0255V0" stroke="white" stroke-width="3.68707"/>
<path d="M72.8786 0.0078125C79.259 0.0078125 84.4316 5.18018 84.4316 11.5606V38.6781C84.4316 42.7454 82.3291 46.3216 79.1526 48.3802L84.2437 53.4717L83.3513 54.3642C81.9119 55.8041 79.5771 55.8041 78.1372 54.3642L73.9543 50.1812C73.6001 50.2139 73.2413 50.2309 72.8786 50.2309H56.4406C50.0601 50.2309 44.8878 45.0585 44.8877 38.6781V11.5606C44.8878 5.18019 50.0601 0.00782922 56.4406 0.0078125H72.8786ZM56.4406 7.38197C54.1328 7.38198 52.2619 9.25283 52.2619 11.5606V38.6781C52.2619 40.9859 54.1328 42.8567 56.4406 42.8567H66.6298L63.3634 39.5903L64.2559 38.6978C65.6958 37.2579 68.0303 37.2579 69.4701 38.6978L73.5718 42.7994C75.5497 42.4692 77.0572 40.7497 77.0572 38.6781V11.5606C77.0572 9.25283 75.1864 7.38197 72.8786 7.38197H56.4406Z" fill="#C9FD48"/>
<path d="M85.8827 49.6845L84.6782 45.7321H85.3167L86.1709 48.7581H86.2123L87.0562 45.7321H87.7042L88.5385 48.7479H88.5791L89.4341 45.7321H90.0718L88.8673 49.6845H88.271L87.4064 46.6482H87.3443L86.4798 49.6845H85.8827ZM92.3972 49.7668C92.0166 49.7668 91.6878 49.6827 91.4116 49.5146C91.137 49.3448 90.9252 49.1081 90.7763 48.8045C90.629 48.4991 90.555 48.144 90.555 47.7391C90.555 47.3343 90.629 46.9775 90.7763 46.6688C90.9252 46.3582 91.133 46.1164 91.3989 45.9431C91.6664 45.7682 91.9784 45.6807 92.3359 45.6807C92.5413 45.6807 92.7451 45.715 92.9457 45.7836C93.1463 45.8522 93.3286 45.9637 93.4934 46.1181C93.6582 46.2707 93.7895 46.4732 93.8875 46.7254C93.9846 46.9775 94.0339 47.288 94.0339 47.6568V47.9141H90.9873V47.3893H93.4162C93.4162 47.1662 93.3716 46.9672 93.2824 46.7923C93.1949 46.6173 93.0699 46.4792 92.9067 46.378C92.7459 46.2768 92.5548 46.2262 92.3359 46.2262C92.0939 46.2262 91.8845 46.2862 91.7077 46.4063C91.5326 46.5247 91.3981 46.679 91.3033 46.8695C91.2094 47.0598 91.1624 47.264 91.1624 47.4818V47.8318C91.1624 48.1303 91.2134 48.3833 91.3169 48.5909C91.4212 48.7967 91.566 48.9537 91.7515 49.0618C91.937 49.1681 92.152 49.2213 92.3972 49.2213C92.5572 49.2213 92.7013 49.199 92.8295 49.1544C92.96 49.1081 93.0723 49.0395 93.167 48.9486C93.2609 48.8559 93.3342 48.7409 93.3851 48.6038L93.9719 48.7684C93.9106 48.9674 93.8063 49.1424 93.6606 49.2934C93.5149 49.4425 93.335 49.5592 93.12 49.6433C92.9059 49.7256 92.6647 49.7668 92.3972 49.7668ZM97.0774 49.6845V44.4147H97.6848V46.36H97.7366C97.7812 46.2914 97.8433 46.2039 97.9221 46.0975C98.0025 45.9895 98.1171 45.8934 98.2668 45.8093C98.4173 45.7236 98.6219 45.6807 98.879 45.6807C99.2118 45.6807 99.5055 45.7639 99.7587 45.9302C100.013 46.0966 100.211 46.3325 100.353 46.6379C100.496 46.9432 100.567 47.3034 100.567 47.7186C100.567 48.1372 100.496 48.5 100.353 48.807C100.211 49.1123 100.013 49.3491 99.7619 49.5172C99.5095 49.6836 99.2189 49.7668 98.8893 49.7668C98.6354 49.7668 98.4324 49.7248 98.2795 49.6407C98.1267 49.5549 98.0096 49.458 97.9269 49.35C97.8449 49.2402 97.7812 49.1493 97.7366 49.0772H97.6641V49.6845H97.0774ZM97.6745 47.7083C97.6745 48.0068 97.7183 48.2701 97.8058 48.4982C97.8934 48.7247 98.0216 48.9022 98.1896 49.0309C98.3575 49.1578 98.5637 49.2213 98.8073 49.2213C99.0605 49.2213 99.2731 49.1544 99.4426 49.0206C99.6138 48.885 99.7428 48.7032 99.8287 48.475C99.9163 48.2452 99.9601 47.9896 99.9601 47.7083C99.9601 47.4304 99.9171 47.18 99.8311 46.957C99.7467 46.7322 99.6194 46.5547 99.4474 46.4243C99.2778 46.2922 99.0645 46.2262 98.8073 46.2262C98.5598 46.2262 98.352 46.2888 98.184 46.414C98.016 46.5375 97.8894 46.7107 97.8035 46.9338C97.7175 47.155 97.6745 47.4132 97.6745 47.7083ZM103.987 48.0686V45.7321H104.594V49.6845H103.987V49.0154H103.945C103.853 49.2161 103.709 49.3868 103.513 49.5275C103.318 49.6664 103.07 49.7359 102.772 49.7359C102.525 49.7359 102.305 49.6818 102.114 49.5738C101.922 49.464 101.77 49.2993 101.661 49.0798C101.551 48.8584 101.496 48.5797 101.496 48.2435V45.7321H102.103V48.2023C102.103 48.4905 102.184 48.7204 102.345 48.892C102.508 49.0634 102.715 49.1493 102.968 49.1493C103.119 49.1493 103.272 49.1106 103.428 49.0334C103.586 48.9563 103.718 48.8379 103.824 48.6784C103.933 48.5188 103.987 48.3155 103.987 48.0686ZM105.706 49.6845V45.7321H106.314V49.6845H105.706ZM106.015 45.0734C105.897 45.0734 105.795 45.0331 105.709 44.9525C105.624 44.8718 105.583 44.7749 105.583 44.6617C105.583 44.5485 105.624 44.4516 105.709 44.3709C105.795 44.2903 105.897 44.25 106.015 44.25C106.133 44.25 106.234 44.2903 106.319 44.3709C106.404 44.4516 106.447 44.5485 106.447 44.6617C106.447 44.7749 106.404 44.8718 106.319 44.9525C106.234 45.0331 106.133 45.0734 106.015 45.0734ZM108.033 44.4147V49.6845H107.426V44.4147H108.033ZM110.637 49.7668C110.309 49.7668 110.017 49.6836 109.766 49.5172C109.513 49.3491 109.316 49.1123 109.173 48.807C109.031 48.5 108.96 48.1372 108.96 47.7186C108.96 47.3034 109.031 46.9432 109.173 46.6379C109.316 46.3325 109.514 46.0966 109.768 45.9302C110.022 45.7639 110.315 45.6807 110.648 45.6807C110.905 45.6807 111.109 45.7236 111.257 45.8093C111.409 45.8934 111.523 45.9895 111.602 46.0975C111.683 46.2039 111.746 46.2914 111.79 46.36H111.842V44.4147H112.449V49.6845H111.863V49.0772H111.79C111.746 49.1493 111.683 49.2402 111.6 49.35C111.518 49.458 111.4 49.5549 111.247 49.6407C111.094 49.7248 110.891 49.7668 110.637 49.7668ZM110.72 49.2213C110.964 49.2213 111.169 49.1578 111.337 49.0309C111.506 48.9022 111.633 48.7247 111.721 48.4982C111.808 48.2701 111.852 48.0068 111.852 47.7083C111.852 47.4132 111.809 47.155 111.723 46.9338C111.637 46.7107 111.511 46.5375 111.343 46.414C111.175 46.2888 110.967 46.2262 110.72 46.2262C110.462 46.2262 110.248 46.2922 110.077 46.4243C109.907 46.5547 109.779 46.7322 109.693 46.957C109.609 47.18 109.567 47.4304 109.567 47.7083C109.567 47.9896 109.61 48.2452 109.696 48.475C109.783 48.7032 109.912 48.885 110.082 49.0206C110.254 49.1544 110.466 49.2213 110.72 49.2213ZM115.766 49.6845V44.4147H116.373V46.36H116.424C116.469 46.2914 116.531 46.2039 116.61 46.0975C116.69 45.9895 116.805 45.8934 116.954 45.8093C117.106 45.7236 117.309 45.6807 117.567 45.6807C117.9 45.6807 118.193 45.7639 118.447 45.9302C118.701 46.0966 118.899 46.3325 119.042 46.6379C119.183 46.9432 119.255 47.3034 119.255 47.7186C119.255 48.1372 119.183 48.5 119.042 48.807C118.899 49.1123 118.702 49.3491 118.449 49.5172C118.197 49.6836 117.906 49.7668 117.577 49.7668C117.324 49.7668 117.12 49.7248 116.967 49.6407C116.815 49.5549 116.697 49.458 116.615 49.35C116.532 49.2402 116.469 49.1493 116.424 49.0772H116.353V49.6845H115.766ZM116.363 47.7083C116.363 48.0068 116.407 48.2701 116.494 48.4982C116.582 48.7247 116.709 48.9022 116.877 49.0309C117.045 49.1578 117.251 49.2213 117.495 49.2213C117.749 49.2213 117.961 49.1544 118.13 49.0206C118.302 48.885 118.43 48.7032 118.516 48.475C118.604 48.2452 118.648 47.9896 118.648 47.7083C118.648 47.4304 118.605 47.18 118.519 46.957C118.435 46.7322 118.307 46.5547 118.136 46.4243C117.965 46.2922 117.752 46.2262 117.495 46.2262C117.248 46.2262 117.04 46.2888 116.872 46.414C116.704 46.5375 116.577 46.7107 116.491 46.9338C116.406 47.155 116.363 47.4132 116.363 47.7083ZM121.789 49.7668C121.432 49.7668 121.12 49.6818 120.85 49.512C120.583 49.3422 120.374 49.1046 120.222 48.7993C120.073 48.4939 119.999 48.1372 119.999 47.7289C119.999 47.3172 120.073 46.9578 120.222 46.6507C120.374 46.3437 120.583 46.1052 120.85 45.9354C121.12 45.7656 121.432 45.6807 121.789 45.6807C122.146 45.6807 122.459 45.7656 122.726 45.9354C122.995 46.1052 123.205 46.3437 123.354 46.6507C123.505 46.9578 123.58 47.3172 123.58 47.7289C123.58 48.1372 123.505 48.4939 123.354 48.7993C123.205 49.1046 122.995 49.3422 122.726 49.512C122.459 49.6818 122.146 49.7668 121.789 49.7668ZM121.789 49.2213C122.061 49.2213 122.283 49.1518 122.459 49.0129C122.634 48.8739 122.763 48.6912 122.847 48.4648C122.931 48.2384 122.973 47.993 122.973 47.7289C122.973 47.4647 122.931 47.2186 122.847 46.9904C122.763 46.7622 122.634 46.5779 122.459 46.4372C122.283 46.2965 122.061 46.2262 121.789 46.2262C121.518 46.2262 121.295 46.2965 121.12 46.4372C120.945 46.5779 120.816 46.7622 120.732 46.9904C120.647 47.2186 120.606 47.4647 120.606 47.7289C120.606 47.993 120.647 48.2384 120.732 48.4648C120.816 48.6912 120.945 48.8739 121.12 49.0129C121.295 49.1518 121.518 49.2213 121.789 49.2213ZM125.114 44.4147V49.6845H124.507V44.4147H125.114ZM127.719 49.7668C127.39 49.7668 127.099 49.6836 126.847 49.5172C126.595 49.3491 126.398 49.1123 126.255 48.807C126.113 48.5 126.042 48.1372 126.042 47.7186C126.042 47.3034 126.113 46.9432 126.255 46.6379C126.398 46.3325 126.596 46.0966 126.85 45.9302C127.103 45.7639 127.397 45.6807 127.73 45.6807C127.987 45.6807 128.19 45.7236 128.339 45.8093C128.491 45.8934 128.605 45.9895 128.684 46.0975C128.764 46.2039 128.827 46.2914 128.872 46.36H128.924V44.4147H129.53V49.6845H128.944V49.0772H128.872C128.827 49.1493 128.764 49.2402 128.682 49.35C128.599 49.458 128.482 49.5549 128.329 49.6407C128.176 49.7248 127.973 49.7668 127.719 49.7668ZM127.801 49.2213C128.045 49.2213 128.251 49.1578 128.419 49.0309C128.587 48.9022 128.715 48.7247 128.803 48.4982C128.89 48.2701 128.934 48.0068 128.934 47.7083C128.934 47.4132 128.891 47.155 128.805 46.9338C128.719 46.7107 128.593 46.5375 128.425 46.414C128.256 46.2888 128.049 46.2262 127.801 46.2262C127.544 46.2262 127.33 46.2922 127.158 46.4243C126.988 46.5547 126.861 46.7322 126.775 46.957C126.691 47.18 126.648 47.4304 126.648 47.7083C126.648 47.9896 126.691 48.2452 126.777 48.475C126.865 48.7032 126.994 48.885 127.164 49.0206C127.335 49.1544 127.548 49.2213 127.801 49.2213ZM134.258 49.7668C133.928 49.7668 133.637 49.6836 133.385 49.5172C133.133 49.3491 132.936 49.1123 132.794 48.807C132.651 48.5 132.58 48.1372 132.58 47.7186C132.58 47.3034 132.651 46.9432 132.794 46.6379C132.936 46.3325 133.134 46.0966 133.388 45.9302C133.641 45.7639 133.935 45.6807 134.268 45.6807C134.525 45.6807 134.728 45.7236 134.878 45.8093C135.029 45.8934 135.144 45.9895 135.222 46.0975C135.303 46.2039 135.366 46.2914 135.41 46.36H135.462V44.4147H136.069V49.6845H135.483V49.0772H135.41C135.366 49.1493 135.302 49.2402 135.22 49.35C135.137 49.458 135.02 49.5549 134.867 49.6407C134.714 49.7248 134.511 49.7668 134.258 49.7668ZM134.34 49.2213C134.583 49.2213 134.789 49.1578 134.957 49.0309C135.125 48.9022 135.253 48.7247 135.341 48.4982C135.429 48.2701 135.472 48.0068 135.472 47.7083C135.472 47.4132 135.429 47.155 135.343 46.9338C135.257 46.7107 135.131 46.5375 134.963 46.414C134.794 46.2888 134.587 46.2262 134.34 46.2262C134.082 46.2262 133.868 46.2922 133.696 46.4243C133.527 46.5547 133.399 46.7322 133.313 46.957C133.229 47.18 133.187 47.4304 133.187 47.7083C133.187 47.9896 133.23 48.2452 133.316 48.475C133.403 48.7032 133.532 48.885 133.702 49.0206C133.873 49.1544 134.086 49.2213 134.34 49.2213ZM137.265 49.6845V45.7321H137.873V49.6845H137.265ZM137.574 45.0734C137.456 45.0734 137.354 45.0331 137.268 44.9525C137.184 44.8718 137.142 44.7749 137.142 44.6617C137.142 44.5485 137.184 44.4516 137.268 44.3709C137.354 44.2903 137.456 44.25 137.574 44.25C137.693 44.25 137.794 44.2903 137.878 44.3709C137.963 44.4516 138.006 44.5485 138.006 44.6617C138.006 44.7749 137.963 44.8718 137.878 44.9525C137.794 45.0331 137.693 45.0734 137.574 45.0734ZM140.58 51.2489C140.287 51.2489 140.035 51.2112 139.824 51.1357C139.613 51.062 139.437 50.9641 139.296 50.8423C139.157 50.7223 139.047 50.5936 138.964 50.4564L139.448 50.1168C139.503 50.1888 139.572 50.2711 139.657 50.3638C139.74 50.4581 139.856 50.5396 140.001 50.6082C140.149 50.6786 140.342 50.7137 140.58 50.7137C140.899 50.7137 141.163 50.6365 141.371 50.4821C141.578 50.3277 141.682 50.0859 141.682 49.7565V48.9537H141.63C141.586 49.0257 141.522 49.115 141.44 49.2213C141.36 49.3259 141.242 49.4195 141.09 49.5018C140.939 49.5824 140.735 49.6227 140.477 49.6227C140.158 49.6227 139.872 49.5472 139.618 49.3963C139.366 49.2453 139.166 49.0257 139.018 48.7375C138.872 48.4493 138.8 48.0994 138.8 47.6877C138.8 47.2829 138.871 46.9304 139.013 46.6302C139.156 46.3282 139.354 46.095 139.607 45.9302C139.861 45.7639 140.155 45.6807 140.488 45.6807C140.745 45.6807 140.95 45.7236 141.1 45.8093C141.253 45.8934 141.369 45.9895 141.45 46.0975C141.532 46.2039 141.596 46.2914 141.641 46.36H141.702V45.7321H142.289V49.7977C142.289 50.1373 142.211 50.4135 142.058 50.6262C141.905 50.8406 141.699 50.9976 141.44 51.0971C141.183 51.1983 140.896 51.2489 140.58 51.2489ZM140.559 49.0772C140.803 49.0772 141.009 49.0214 141.177 48.91C141.345 48.7984 141.473 48.638 141.561 48.4288C141.648 48.2195 141.692 47.969 141.692 47.6774C141.692 47.3927 141.649 47.1413 141.563 46.9235C141.477 46.7056 141.351 46.535 141.183 46.4114C141.014 46.2879 140.807 46.2262 140.559 46.2262C140.302 46.2262 140.088 46.2914 139.916 46.4218C139.747 46.5521 139.619 46.7271 139.533 46.9466C139.449 47.1662 139.407 47.4098 139.407 47.6774C139.407 47.9519 139.45 48.1946 139.536 48.4056C139.623 48.6149 139.752 48.7796 139.922 48.8997C140.093 49.018 140.305 49.0772 140.559 49.0772ZM143.401 49.6845V45.7321H144.008V49.6845H143.401ZM143.71 45.0734C143.591 45.0734 143.489 45.0331 143.403 44.9525C143.319 44.8718 143.277 44.7749 143.277 44.6617C143.277 44.5485 143.319 44.4516 143.403 44.3709C143.489 44.2903 143.591 44.25 143.71 44.25C143.827 44.25 143.929 44.2903 144.013 44.3709C144.099 44.4516 144.142 44.5485 144.142 44.6617C144.142 44.7749 144.099 44.8718 144.013 44.9525C143.929 45.0331 143.827 45.0734 143.71 45.0734ZM146.839 45.7321V46.2468H144.791V45.7321H146.839ZM145.388 44.7852H145.995V48.5523C145.995 48.7238 146.02 48.8525 146.069 48.9382C146.121 49.0223 146.186 49.0789 146.265 49.1081C146.345 49.1355 146.431 49.1493 146.52 49.1493C146.587 49.1493 146.642 49.1458 146.685 49.1389C146.728 49.1304 146.762 49.1235 146.787 49.1184L146.911 49.6639C146.87 49.6793 146.812 49.6947 146.739 49.7102C146.665 49.7273 146.572 49.7359 146.458 49.7359C146.287 49.7359 146.119 49.699 145.954 49.6252C145.791 49.5515 145.655 49.4391 145.547 49.2882C145.441 49.1372 145.388 48.9468 145.388 48.717V44.7852ZM148.915 49.7771C148.664 49.7771 148.438 49.7299 148.234 49.6356C148.029 49.5395 147.868 49.4014 147.747 49.2213C147.627 49.0395 147.567 48.8199 147.567 48.5625C147.567 48.3361 147.611 48.1525 147.7 48.012C147.79 47.8695 147.909 47.758 148.059 47.6774C148.208 47.5968 148.372 47.5368 148.552 47.4973C148.735 47.4561 148.917 47.4236 149.101 47.3995C149.34 47.3686 149.535 47.3455 149.685 47.33C149.836 47.3129 149.945 47.2846 150.014 47.2452C150.085 47.2057 150.12 47.137 150.12 47.0393V47.0187C150.12 46.7648 150.05 46.5675 149.911 46.4268C149.774 46.2862 149.566 46.2159 149.286 46.2159C148.996 46.2159 148.769 46.2793 148.604 46.4063C148.439 46.5332 148.324 46.6688 148.257 46.8129L147.681 46.607C147.783 46.3668 147.92 46.1798 148.092 46.0461C148.265 45.9105 148.454 45.8162 148.658 45.763C148.864 45.7081 149.067 45.6807 149.266 45.6807C149.392 45.6807 149.538 45.6961 149.703 45.727C149.869 45.7561 150.03 45.817 150.184 45.9097C150.34 46.0023 150.469 46.1421 150.573 46.3291C150.675 46.5161 150.727 46.7665 150.727 47.0804V49.6845H150.12V49.1493H150.089C150.047 49.235 149.979 49.3268 149.883 49.4246C149.787 49.5223 149.659 49.6055 149.5 49.6741C149.34 49.7428 149.145 49.7771 148.915 49.7771ZM149.008 49.2316C149.248 49.2316 149.45 49.1844 149.615 49.09C149.781 48.9957 149.907 48.8739 149.991 48.7247C150.077 48.5754 150.12 48.4184 150.12 48.2538V47.698C150.093 47.7289 150.037 47.7572 149.949 47.7829C149.864 47.807 149.765 47.8284 149.651 47.8472C149.539 47.8644 149.431 47.8798 149.324 47.8936C149.22 47.9056 149.135 47.9159 149.07 47.9245C148.912 47.945 148.764 47.9784 148.627 48.0248C148.492 48.0694 148.382 48.1372 148.297 48.2281C148.215 48.3173 148.174 48.4391 148.174 48.5934C148.174 48.8045 148.252 48.964 148.408 49.072C148.567 49.1784 148.766 49.2316 149.008 49.2316ZM152.443 44.4147V49.6845H151.835V44.4147H152.443Z" fill="white"/>
</g>
<defs>
<clipPath id="clip0_393_115">
<rect width="155" height="55.4879" fill="white"/>
</clipPath>
</defs>
</svg>
